<svg width="20" height="20" viewBox="0 0 509 608" version="1.1" xmlns="http://www.w3.org/2000/svg" xmlns:xlink="http://www.w3.org/1999/xlink"
     xml:space="preserve" xmlns:serif="http://www.serif.com/"
     style="fill-rule:evenodd;clip-rule:evenodd;stroke-linejoin:round;stroke-miterlimit:2;">
    <path fill="black" d="M284.4,0.387c-39.5,1.4 -95.1,8.5 -133,16.9c-33.4,7.3 -73.4,19.9 -93.6,29.3c-15.2,7.1 -31.4,20.8 -41.1,34.9c-9.5,13.5 -16.5,33.8 -16.7,47.7c-0,4.4 2.4,25.8 5.4,48.5c0.5,4.1 2.1,16.7 3.5,28c1.3,11.3 3.8,31.7 5.5,45.5c1.6,13.7 3.4,28.4 4,32.5c0.5,4.1 2.1,16.9 3.5,28.5c5.5,45.4 7.6,62.6 9.5,77c1,8.2 2.1,17.7 2.5,21c0.3,3.3 1.2,10.9 2,17c2.2,16.2 5.3,41.8 7.5,60.6c1.1,9.2 2.5,18.9 3.1,21.5c4.5,18.6 19.9,31.1 39.3,32c4.3,0.2 8,0.5 8.2,0.6c0.1,0.2 1.2,8.7 2.4,19c2.4,21.1 3.9,28.1 7.4,33.5c5,8 13.5,13.2 21.1,13.3c7.3,-0 35.9,-4.2 39.4,-5.8c4.5,-2.1 9.6,-7.3 12.2,-12.5c3.3,-6.4 3.4,-17.7 0.6,-39.2c-1.3,-9.9 -2.1,-18.3 -1.8,-18.7c0.3,-0.4 8.5,-1.6 18.1,-2.8c9.6,-1.1 26.7,-3.2 38,-4.6c11.3,-1.4 27.9,-3.3 37,-4.4c9.1,-1.1 17.9,-2.2 19.6,-2.5c2.9,-0.5 16,-2.1 52.9,-6.5c8.8,-1 21.3,-2.6 27.8,-3.4c13.1,-1.8 17.4,-2 18,-0.8c0.3,0.4 1.2,7.4 2.1,15.7c2,17.7 4.2,29.8 6.2,33.7c4.4,8.6 14.8,15.8 22.6,15.8c4.5,-0 25.8,-2.5 34.5,-4.1c6.4,-1.2 13.2,-6.9 17.1,-14.3c2.4,-4.5 2.7,-6.2 2.7,-15.1c-0,-5.5 -0.8,-15.6 -1.7,-22.5c-0.9,-6.9 -1.8,-14.3 -2,-16.4l-0.3,-4l6.4,-1.3c9,-1.8 14.7,-4.9 21.4,-11.5c6.6,-6.5 10.4,-13.8 12,-23.1c1,-6.2 0.3,-13.3 -5.8,-60.7c-0.8,-6.3 -2.8,-22.8 -4.5,-36.5c-1.6,-13.8 -3.4,-28.4 -4,-32.5c-0.5,-4.1 -2.1,-16.7 -3.5,-28c-1.3,-11.3 -3.8,-31.8 -5.5,-45.5c-1.7,-13.8 -3.9,-32.4 -5,-41.5c-1.1,-9.1 -2.9,-23.3 -4,-31.5c-1,-8.3 -2.1,-17.5 -2.5,-20.5c-0.3,-3 -1.2,-10.7 -2,-17c-3.1,-23.4 -4.5,-34.9 -6.5,-50.9c-2.8,-22.8 -5.9,-32 -15.5,-46.6c-16,-24.1 -43,-40.5 -71.6,-43.5c-5.2,-0.5 -12.7,-1.4 -16.7,-2c-16.2,-2.3 -49.7,-3.3 -76.2,-2.3Zm136.1,77.8c7.1,2.5 11.9,6.2 13.9,10.8c1.1,2.4 2.5,10.1 3.4,18.2c0.9,7.7 2.3,19.2 3.1,25.5c0.8,6.3 2.6,21.2 4.1,33c1.4,11.8 3.6,30 5,40.5c2.6,20.8 2.5,23.1 -2.1,29.1c-1.5,1.9 -4.4,4.6 -6.6,6c-7.3,4.6 -12.8,5.2 -51.9,5.8c-43.1,0.6 -64,1.7 -100.5,5.1c-51.8,4.9 -102.7,12.4 -146.5,21.6c-22.3,4.7 -29.6,6.4 -49,11.1c-17,4.1 -21.7,4.9 -27.5,4.6c-12.5,-0.6 -21.8,-7.6 -22.9,-17.1c-1.9,-15.7 -3,-24.6 -5.2,-42.2c-9.7,-78.2 -10.7,-87.9 -10,-91.9c0.9,-4.7 6.5,-11 12.7,-14.1c2.6,-1.4 8.7,-3.4 13.6,-4.5c4.8,-1.1 14,-3.3 20.3,-5c6.3,-1.7 14.2,-3.7 17.5,-4.4c3.3,-0.8 11.2,-2.6 17.5,-4.1c58.3,-13.4 127.3,-23.3 186,-26.5c41.9,-2.3 54.3,-2.7 87.1,-2.9c28,-0.1 34.4,0.2 38,1.4Zm19.1,209.4c25.2,8.7 35.5,37.4 21.3,59.6c-10.7,16.8 -32.9,22.9 -51,14c-6.1,-3 -14.4,-11 -17.8,-17.3c-9.3,-17.2 -3.5,-40 13.1,-51.4c9.6,-6.6 23.7,-8.6 34.4,-4.9Zm-331.7,39.6c16.3,4.3 27.3,16.3 29.8,32.6c5.2,33.9 -31.8,58 -60.7,39.5c-6.7,-4.3 -11.2,-9.6 -14.9,-17.5c-2.7,-5.6 -3.1,-7.7 -3.1,-15.1c-0.1,-10.6 1.3,-15.3 6.7,-23.1c5.2,-7.6 13.2,-13.5 21.8,-15.9c8,-2.3 12.9,-2.4 20.4,-0.5Zm284.6,64.9c7.9,3.5 20.2,6 29.7,6c6.9,-0 8.2,0.3 8.2,1.7c-0,2.1 -15.6,17.1 -29,27.8c-18.5,14.9 -39.5,27.4 -60.3,36.1c-51.4,21.3 -109.5,24.4 -162.7,8.5c-9.4,-2.8 -9.6,-2.8 -23,-8.1c-17.8,-6.9 -47.5,-23.4 -46.7,-25.8c0.2,-0.6 2.8,-1.9 5.8,-2.8c8.2,-2.6 19.2,-8.6 25.9,-13.9l6,-4.9l7.7,3.9c20.8,10.4 42.1,17 66,20.6c21.4,3.1 55.1,1.4 76.6,-4c28.9,-7.3 57.8,-21.8 81.2,-40.9c4.4,-3.5 8.3,-6.5 8.6,-6.5c0.4,-0.1 3.1,1 6,2.3Z"
          style="fill-rule:nonzero;"></path>
</svg>
